<svg width="20" height="20" viewBox="0 0 20 20" fill="none" xmlns="http://www.w3.org/2000/svg">
<mask id="mask0_57_48" style="mask-type:alpha" maskUnits="userSpaceOnUse" x="0" y="0" width="20" height="20">
<rect width="20" height="20" fill="#D9D9D9"/>
</mask>
<g mask="url(#mask0_57_48)">
<path d="M3.52004 17.6086C3.18185 17.6879 2.89018 17.6042 2.64504 17.3574C2.39977 17.1106 2.31518 16.8181 2.39129 16.4799L3.15046 12.7938L7.20609 16.8494L3.52004 17.6086ZM8.52046 15.7888L4.21109 11.4794L12.7505 2.94007C13.1164 2.5741 13.5654 2.39111 14.0973 2.39111C14.6294 2.39111 15.0784 2.5741 15.4444 2.94007L17.0598 4.55549C17.4258 4.92146 17.6088 5.37049 17.6088 5.90257C17.6088 6.43452 17.4258 6.88347 17.0598 7.24945L8.52046 15.7888Z" fill="white"/>
</g>
</svg>
