<svg width="20" height="20" viewBox="0 0 20 20" fill="none" xmlns="http://www.w3.org/2000/svg">
<mask id="mask0_57_60" style="mask-type:alpha" maskUnits="userSpaceOnUse" x="0" y="0" width="20" height="20">
<rect width="20" height="20" fill="#D9D9D9"/>
</mask>
<g mask="url(#mask0_57_60)">
<path d="M9.99951 11.326L5.99597 15.3298C5.81986 15.5058 5.59882 15.5937 5.33285 15.5937C5.06687 15.5937 4.84583 15.5058 4.66972 15.3298C4.49375 15.1537 4.40576 14.9326 4.40576 14.6667C4.40576 14.4007 4.49375 14.1797 4.66972 14.0035L8.67347 10L4.66972 5.99646C4.49375 5.82035 4.40576 5.59931 4.40576 5.33333C4.40576 5.06736 4.49375 4.84632 4.66972 4.67021C4.84583 4.49424 5.06687 4.40625 5.33285 4.40625C5.59882 4.40625 5.81986 4.49424 5.99597 4.67021L9.99951 8.67396L14.0031 4.67021C14.1792 4.49424 14.4002 4.40625 14.6662 4.40625C14.9322 4.40625 15.1532 4.49424 15.3293 4.67021C15.5053 4.84632 15.5933 5.06736 15.5933 5.33333C15.5933 5.59931 15.5053 5.82035 15.3293 5.99646L11.3256 10L15.3293 14.0035C15.5053 14.1797 15.5933 14.4007 15.5933 14.6667C15.5933 14.9326 15.5053 15.1537 15.3293 15.3298C15.1532 15.5058 14.9322 15.5937 14.6662 15.5937C14.4002 15.5937 14.1792 15.5058 14.0031 15.3298L9.99951 11.326Z" fill="white"/>
</g>
</svg>
