<svg width="20" height="20" viewBox="0 0 20 20" fill="none" xmlns="http://www.w3.org/2000/svg">
<mask id="mask0_57_63" style="mask-type:alpha" maskUnits="userSpaceOnUse" x="0" y="0" width="20" height="20">
<rect width="20" height="20" fill="#D9D9D9"/>
</mask>
<g mask="url(#mask0_57_63)">
<path d="M7.95849 12.4555L14.9314 5.48255C15.1213 5.29268 15.3439 5.19775 15.5993 5.19775C15.8547 5.19775 16.0774 5.29268 16.2674 5.48255C16.4573 5.67255 16.5522 5.89789 16.5522 6.15859C16.5522 6.41928 16.4573 6.64463 16.2674 6.83463L8.62661 14.4913C8.43661 14.6812 8.21391 14.7761 7.95849 14.7761C7.70307 14.7761 7.48036 14.6812 7.29036 14.4913L3.71703 10.918C3.52717 10.728 3.43488 10.5026 3.44016 10.2419C3.44543 9.98123 3.543 9.75588 3.73286 9.56588C3.92286 9.37602 4.14821 9.28109 4.40891 9.28109C4.6696 9.28109 4.89495 9.37602 5.08495 9.56588L7.95849 12.4555Z" fill="white"/>
</g>
</svg>
